# xmcd
# Copyright (C) 1995-1998 Ti Kan
#
# Track frame offsets:
#       150
#       21049
#       39698
#       58947
#
# Disc length: 1029 seconds
#
# Revision: 0
# Processed by: cddbd v1.5.2PL0 Copyright (c) Steve Scherf et al.
# Submitted via: CD-Transfer v1.0
#
DISCID=30040304
DTITLE=Eminem - 
DYEAR=09
DGENRE=
TTITLE0=Beautiful Singel Version 1
TTITLE1=Beautiful Singel Version 2
TTITLE2=Beautiful Radio Edit
TTITLE3=Beatiful Radio Edit Clean
EXTD=
EXTT0=
EXTT1=
EXTT2=
EXTT3=
PLAYORDER=
